<svg xmlns="http://www.w3.org/2000/svg" viewBox="0 0 24 24" width="512" height="512"><path d="M12,2A10,10,0,1,0,22,12,10,10,0,0,0,12,2Zm0,18a8,8,0,1,1,8-8A8,8,0,0,1,12,20Z" fill="#FF8C00"/><path d="M12,4.13a7.87,7.87,0,1,0,7.87,7.87A7.88,7.88,0,0,0,12,4.13Zm0,1.44a6.43,6.43,0,1,1-6.43,6.43A6.43,6.43,0,0,1,12,5.57Z" fill="#FF8C00"/><polygon points="12 8.78 9.53 10.11 10.24 7.33 8 5.47 10.84 5.47 12 2.78 13.16 5.47 16 5.47 13.76 7.33 14.47 10.11 12 8.78" fill="#FF8C00"/><path d="M11.38,12.36l-3.22,1.24.29,3.3-2.11-1.11-2.11,1.11.29-3.3-3.22-1.24,2.6-.54L7.09,9.2,9,10.31l1.93-1.11.81,2.62,2.6.54Zm5.49,1.78L16.58,16l.29-3.3-2.11,1.11-2.11-1.11.29,3.3-3.22,1.24,2.6.54.81,2.62,1.93-1.11,1.93,1.11.81-2.62,2.6-.54Z" fill="#FF8C00"/></svg>
